<svg xmlns="http://www.w3.org/2000/svg" xmlns:xlink="http://www.w3.org/1999/xlink" width="69.342mm" height="62.687mm" viewBox="3908 3307 273 246.8"><title></title><style type="text/css">
*[layerid="1"] {stroke:#FF0000;fill:#FF0000;}
*[layerid="2"] {stroke:#0000FF;fill:#0000FF;}
*[layerid="3"] {stroke:#FFCC00;fill:#FFCC00;}
*[layerid="4"] {stroke:#66CC33;fill:#66CC33;}
*[layerid="5"] {stroke:#808080;fill:#808080;}
*[layerid="6"] {stroke:#800000;fill:#800000;}
*[layerid="7"] {stroke:#800080;fill:#800080;stroke-opacity:0.7;fill-opacity:0.7;}
*[layerid="8"] {stroke:#AA00FF;fill:#AA00FF;stroke-opacity:0.7;fill-opacity:0.7;}
*[layerid="9"] {stroke:#6464FF;fill:#6464FF;}
*[layerid="10"] {stroke:#FF00FF;fill:#FF00FF;}
*[layerid="11"] {stroke:#C0C0C0;fill:#C0C0C0;}
*[layerid="12"] {stroke:#FFFFFF;fill:#FFFFFF;}
*[layerid="13"] {stroke:#33CC99;fill:#33CC99;}
*[layerid="14"] {stroke:#5555FF;fill:#5555FF;}
*[layerid="15"] {stroke:#F022F0;fill:#F022F0;}
*[layerid="19"] {stroke:#66CCFF;fill:#66CCFF;}
*[layerid="21"] {stroke:#999966;fill:#999966;}
*[layerid="22"] {stroke:#008000;fill:#008000;}
*[layerid="23"] {stroke:#00FF00;fill:#00FF00;}
*[layerid="24"] {stroke:#BC8E00;fill:#BC8E00;}
*[layerid="25"] {stroke:#70DBFA;fill:#70DBFA;}
*[layerid="26"] {stroke:#00CC66;fill:#00CC66;}
*[layerid="27"] {stroke:#9966FF;fill:#9966FF;}
*[layerid="28"] {stroke:#800080;fill:#800080;}
*[layerid="29"] {stroke:#008080;fill:#008080;}
*[layerid="30"] {stroke:#15935F;fill:#15935F;}
*[layerid="31"] {stroke:#000080;fill:#000080;}
*[layerid="32"] {stroke:#00B400;fill:#00B400;}
*[layerid="33"] {stroke:#2E4756;fill:#2E4756;}
*[layerid="34"] {stroke:#99842F;fill:#99842F;}
*[layerid="35"] {stroke:#FFFFAA;fill:#FFFFAA;}
*[layerid="36"] {stroke:#99842F;fill:#99842F;}
*[layerid="37"] {stroke:#2E4756;fill:#2E4756;}
*[layerid="38"] {stroke:#3535FF;fill:#3535FF;}
*[layerid="39"] {stroke:#8000BC;fill:#8000BC;}
*[layerid="40"] {stroke:#43AE5F;fill:#43AE5F;}
*[layerid="41"] {stroke:#C3ECCE;fill:#C3ECCE;}
*[layerid="42"] {stroke:#728978;fill:#728978;}
*[layerid="43"] {stroke:#39503F;fill:#39503F;}
*[layerid="44"] {stroke:#0C715D;fill:#0C715D;}
*[layerid="45"] {stroke:#5A8A80;fill:#5A8A80;}
*[layerid="46"] {stroke:#2B937E;fill:#2B937E;}
*[layerid="47"] {stroke:#23999D;fill:#23999D;}
*[layerid="48"] {stroke:#45B4E3;fill:#45B4E3;}
*[layerid="49"] {stroke:#215DA1;fill:#215DA1;}
*[layerid="50"] {stroke:#4564D7;fill:#4564D7;}
*[layerid="51"] {stroke:#6969E9;fill:#6969E9;}
*[layerid="52"] {stroke:#9069E9;fill:#9069E9;}
*[layerid="99"] {stroke:#00CCCC;fill:#00CCCC;stroke-opacity:0.6;fill-opacity:0.6;}
*[layerid="100"] {stroke:#CC9999;fill:#CC9999;}
*[layerid="101"] {stroke:#66FFCC;fill:#66FFCC;}
*[layerid="Hole"] {stroke:#222222;fill:#222222;}
*[layerid="DRCError"] {stroke:#FAD609;fill:#FAD609;}
*[fill="none"] {fill: none;}
*[stroke="none"] {stroke: none;}
path, polyline, polygon, line {stroke-linecap:round;}
g[c_partid="part_pad"][layerid="1"] ellipse:not([c_etype="pad_outer"]) {fill:#FF0000;}
g[c_partid="part_pad"][layerid="1"] polygon:not([c_etype="pad_outer"]) {fill:#FF0000;}
g[c_partid="part_pad"][layerid="1"] polyline:not([c_etype="pad_outer"]) {stroke:#FF0000;}
g[c_partid="part_pad"][layerid="2"] ellipse:not([c_etype="pad_outer"]) {fill:#0000FF;}
g[c_partid="part_pad"][layerid="2"] polygon:not([c_etype="pad_outer"]) {fill:#0000FF;}
g[c_partid="part_pad"][layerid="2"] polyline:not([c_etype="pad_outer"]) {stroke:#0000FF;}
g[c_partid="part_pad"][layerid="11"] ellipse:not([c_etype="pad_outer"]) {fill:#C0C0C0;}
g[c_partid="part_pad"][layerid="11"] polygon:not([c_etype="pad_outer"]) {fill:#C0C0C0;}
g[c_partid="part_pad"][layerid="11"] polyline:not([c_etype="pad_outer"]) {stroke:#C0C0C0;}
g[c_partid="part_pad"][layerid="11"] circle {fill:#222222;}
g[c_partid="part_pad"][layerid="11"] > polyline:nth-of-type(2) {stroke:#222222;}
g[c_partid="part_pad"][layerid="11"][c_shape="ELLIPSE"]  polyline:nth-last-of-type(1) {stroke:#222222;}
g[c_partid="part_pad"][layerid="11"][c_shape="RECT"]  polyline:nth-last-of-type(1) {stroke:#222222;}
g[c_partid="part_pad"][layerid="11"][c_shape="POLYGON"]  polyline:nth-last-of-type(1) {stroke:#222222;}
g[c_partid="part_via"] > * + circle, #gCurParts g[c_partid="part_via"] > * + circle {fill:#222222;}
g[c_partid="part_pad"] > polygon[c_etype="pad_outer"], #gCurParts g[c_partid="part_pad"] > polygon[c_etype="pad_outer"] {stroke-linejoin: round;stroke-miterlimit: 100;}
g[c_partid="part_hole"] > circle {fill: #222222;}path, polyline, polygon {stroke-linejoin:round;}
rect, circle, ellipse, polyline, line, polygon, path {shape-rendering:crispEdges;}
</style>
<rect x="3908" y="3307" width="273" height="246.8" fill="#000000" stroke="none"/><polyline points="4138 3462 4104.5 3462 4104.5 3317 3954.5 3317 3954.5 3341.5 3968 3341.5 3968 3342" stroke-width="3.937"  stroke-linecap="round" fill="none" layerid="2" net="3.3V" id="gge2304" locked="0" /><polyline points="4125.5 3484 4150 3484" stroke-width="3.937"  stroke-linecap="round" fill="none" layerid="1" net="R1_2" id="gge3640" locked="0" /><polyline points="4068 3462 4085.5 3462 4085.5 3484" stroke-width="3.937"  stroke-linecap="round" fill="none" layerid="1" net="U1_26" id="gge3637" locked="0" /><polyline points="4068 3452 4115 3452 4115 3441.5 4138 3441.5 4138 3442" stroke-width="3.937"  stroke-linecap="round" fill="none" layerid="1" net="H3_2" id="gge3622" locked="0" /><polyline points="4138 3432 4092 3432 4092 3342 4068 3342" stroke-width="3.937"  stroke-linecap="round" fill="none" layerid="1" net="H3_1" id="gge2298" locked="0" /><g c_partid="part_pcbtext" c_etype="pinpart" c_origin="4146,3455" c_rotation="0" c_mirror="0" id="gge2187" locked="0" layerid="1" c_shapetype="group" ><path c_fontsize="5.9055" c_fontfamily="" c_text="RX" d="M 4146 3449.04 L 4146 3454.68 M 4146 3449.04 L 4148.42 3449.04 L 4149.22 3449.31 L 4149.49 3449.58 L 4149.76 3450.11 L 4149.76 3450.65 L 4149.49 3451.19 L 4149.22 3451.46 L 4148.42 3451.73 L 4146 3451.73 M 4147.88 3451.73 L 4149.76 3454.68 M 4151.53 3449.04 L 4155.29 3454.68 M 4155.29 3449.04 L 4151.53 3454.68" fill="none"  stroke-width="0.8"  /></g><g c_partid="part_pcbtext" c_etype="pinpart" c_origin="4145.5,3445" c_rotation="0" c_mirror="0" id="gge2208" locked="0" layerid="1" c_shapetype="group" ><path c_fontsize="5.9055" c_fontfamily="" c_text="TX" d="M 4147.38 3439.04 L 4147.38 3444.68 M 4145.5 3439.04 L 4149.26 3439.04 M 4151.03 3439.04 L 4154.79 3444.68 M 4154.79 3439.04 L 4151.03 3444.68" fill="none"  stroke-width="0.8"  /></g><g c_partid="part_pcbtext" c_etype="pinpart" c_origin="4145.5,3434.5" c_rotation="0" c_mirror="0" id="gge2220" locked="0" layerid="1" c_shapetype="group" ><path c_fontsize="5.9055" c_fontfamily="" c_text="GND" d="M 4149.53 3429.88 L 4149.26 3429.35 L 4148.72 3428.81 L 4148.18 3428.54 L 4147.11 3428.54 L 4146.57 3428.81 L 4146.04 3429.35 L 4145.77 3429.88 L 4145.5 3430.69 L 4145.5 3432.03 L 4145.77 3432.84 L 4146.04 3433.37 L 4146.57 3433.91 L 4147.11 3434.18 L 4148.18 3434.18 L 4148.72 3433.91 L 4149.26 3433.37 L 4149.53 3432.84 L 4149.53 3432.03 M 4148.18 3432.03 L 4149.53 3432.03 M 4151.3 3428.54 L 4151.3 3434.18 M 4151.3 3428.54 L 4155.06 3434.18 M 4155.06 3428.54 L 4155.06 3434.18 M 4156.83 3428.54 L 4156.83 3434.18 M 4156.83 3428.54 L 4158.71 3428.54 L 4159.51 3428.81 L 4160.05 3429.35 L 4160.32 3429.88 L 4160.59 3430.69 L 4160.59 3432.03 L 4160.32 3432.84 L 4160.05 3433.37 L 4159.51 3433.91 L 4158.71 3434.18 L 4156.83 3434.18" fill="none"  stroke-width="0.8"  /></g><g c_partid="part_pcbtext" c_etype="pinpart" c_origin="4145.5,3464.5" c_rotation="0" c_mirror="0" id="gge2232" locked="0" layerid="1" c_shapetype="group" ><path c_fontsize="5.9055" c_fontfamily="" c_text="3.3V" d="M 4146.04 3458.54 L 4148.99 3458.54 L 4147.38 3460.69 L 4148.18 3460.69 L 4148.72 3460.96 L 4148.99 3461.23 L 4149.26 3462.03 L 4149.26 3462.57 L 4148.99 3463.37 L 4148.45 3463.91 L 4147.65 3464.18 L 4146.84 3464.18 L 4146.04 3463.91 L 4145.77 3463.64 L 4145.5 3463.1 M 4151.3 3462.84 L 4151.03 3463.1 L 4151.3 3463.37 L 4151.57 3463.1 L 4151.3 3462.84 M 4153.88 3458.54 L 4156.83 3458.54 L 4155.22 3460.69 L 4156.02 3460.69 L 4156.56 3460.96 L 4156.83 3461.23 L 4157.1 3462.03 L 4157.1 3462.57 L 4156.83 3463.37 L 4156.29 3463.91 L 4155.49 3464.18 L 4154.68 3464.18 L 4153.88 3463.91 L 4153.61 3463.64 L 4153.34 3463.1 M 4158.87 3458.54 L 4161.02 3464.18 M 4163.16 3458.54 L 4161.02 3464.18" fill="none"  stroke-width="0.8"  /></g><g c_partid="part_pcbtext" c_etype="pinpart" c_origin="4076.5,3338.5" c_rotation="0" c_mirror="0" id="gge2244" locked="0" layerid="1" c_shapetype="group" ><path c_fontsize="5.9055" c_fontfamily="" c_text="GND pin" d="M 4080.53 3333.88 L 4080.26 3333.35 L 4079.72 3332.81 L 4079.18 3332.54 L 4078.11 3332.54 L 4077.57 3332.81 L 4077.04 3333.35 L 4076.77 3333.88 L 4076.5 3334.69 L 4076.5 3336.03 L 4076.77 3336.84 L 4077.04 3337.37 L 4077.57 3337.91 L 4078.11 3338.18 L 4079.18 3338.18 L 4079.72 3337.91 L 4080.26 3337.37 L 4080.53 3336.84 L 4080.53 3336.03 M 4079.18 3336.03 L 4080.53 3336.03 M 4082.3 3332.54 L 4082.3 3338.18 M 4082.3 3332.54 L 4086.06 3338.18 M 4086.06 3332.54 L 4086.06 3338.18 M 4087.83 3332.54 L 4087.83 3338.18 M 4087.83 3332.54 L 4089.71 3332.54 L 4090.51 3332.81 L 4091.05 3333.35 L 4091.32 3333.88 L 4091.59 3334.69 L 4091.59 3336.03 L 4091.32 3336.84 L 4091.05 3337.37 L 4090.51 3337.91 L 4089.71 3338.18 L 4087.83 3338.18 M 4097.49 3334.42 L 4097.49 3340.06 M 4097.49 3335.23 L 4098.03 3334.69 L 4098.57 3334.42 L 4099.37 3334.42 L 4099.91 3334.69 L 4100.44 3335.23 L 4100.71 3336.03 L 4100.71 3336.57 L 4100.44 3337.37 L 4099.91 3337.91 L 4099.37 3338.18 L 4098.57 3338.18 L 4098.03 3337.91 L 4097.49 3337.37 M 4102.48 3332.54 L 4102.75 3332.81 L 4103.02 3332.54 L 4102.75 3332.27 L 4102.48 3332.54 M 4102.75 3334.42 L 4102.75 3338.18 M 4104.79 3334.42 L 4104.79 3338.18 M 4104.79 3335.49 L 4105.6 3334.69 L 4106.13 3334.42 L 4106.94 3334.42 L 4107.48 3334.69 L 4107.75 3335.49 L 4107.75 3338.18" fill="none"  stroke-width="0.8"  /></g><g c_partid="part_pcbtext" c_etype="pinpart" c_origin="3918,3343.5" c_rotation="0" c_mirror="0" id="gge2256" locked="0" layerid="1" c_shapetype="group" ><path c_fontsize="5.9055" c_fontfamily="" c_text="3.3V pin" d="M 3918.54 3337.54 L 3921.49 3337.54 L 3919.88 3339.69 L 3920.68 3339.69 L 3921.22 3339.96 L 3921.49 3340.23 L 3921.76 3341.03 L 3921.76 3341.57 L 3921.49 3342.37 L 3920.95 3342.91 L 3920.15 3343.18 L 3919.34 3343.18 L 3918.54 3342.91 L 3918.27 3342.64 L 3918 3342.1 M 3923.8 3341.84 L 3923.53 3342.1 L 3923.8 3342.37 L 3924.07 3342.1 L 3923.8 3341.84 M 3926.38 3337.54 L 3929.33 3337.54 L 3927.72 3339.69 L 3928.52 3339.69 L 3929.06 3339.96 L 3929.33 3340.23 L 3929.6 3341.03 L 3929.6 3341.57 L 3929.33 3342.37 L 3928.79 3342.91 L 3927.99 3343.18 L 3927.18 3343.18 L 3926.38 3342.91 L 3926.11 3342.64 L 3925.84 3342.1 M 3931.37 3337.54 L 3933.52 3343.18 M 3935.66 3337.54 L 3933.52 3343.18 M 3941.57 3339.42 L 3941.57 3345.06 M 3941.57 3340.23 L 3942.11 3339.69 L 3942.64 3339.42 L 3943.45 3339.42 L 3943.98 3339.69 L 3944.52 3340.23 L 3944.79 3341.03 L 3944.79 3341.57 L 3944.52 3342.37 L 3943.98 3342.91 L 3943.45 3343.18 L 3942.64 3343.18 L 3942.11 3342.91 L 3941.57 3342.37 M 3946.56 3337.54 L 3946.83 3337.81 L 3947.1 3337.54 L 3946.83 3337.27 L 3946.56 3337.54 M 3946.83 3339.42 L 3946.83 3343.18 M 3948.87 3339.42 L 3948.87 3343.18 M 3948.87 3340.49 L 3949.67 3339.69 L 3950.21 3339.42 L 3951.02 3339.42 L 3951.55 3339.69 L 3951.82 3340.49 L 3951.82 3343.18" fill="none"  stroke-width="0.8"  /></g><g c_partid="part_pcbtext" c_etype="pinpart" c_origin="4075.5,3449" c_rotation="0" c_mirror="0" id="gge2280" locked="0" layerid="1" c_shapetype="group" ><path c_fontsize="3.937" c_fontfamily="" c_text="RX2 pin" d="M 4075.5 3445.03 L 4075.5 3448.79 M 4075.5 3445.03 L 4077.11 3445.03 L 4077.65 3445.21 L 4077.83 3445.39 L 4078.01 3445.74 L 4078.01 3446.1 L 4077.83 3446.46 L 4077.65 3446.64 L 4077.11 3446.82 L 4075.5 3446.82 M 4076.75 3446.82 L 4078.01 3448.79 M 4079.19 3445.03 L 4081.69 3448.79 M 4081.69 3445.03 L 4079.19 3448.79 M 4083.05 3445.92 L 4083.05 3445.74 L 4083.23 3445.39 L 4083.41 3445.21 L 4083.77 3445.03 L 4084.48 3445.03 L 4084.84 3445.21 L 4085.02 3445.39 L 4085.2 3445.74 L 4085.2 3446.1 L 4085.02 3446.46 L 4084.66 3447 L 4082.87 3448.79 L 4085.38 3448.79 M 4089.32 3446.28 L 4089.32 3450.04 M 4089.32 3446.82 L 4089.67 3446.46 L 4090.03 3446.28 L 4090.57 3446.28 L 4090.93 3446.46 L 4091.28 3446.82 L 4091.46 3447.35 L 4091.46 3447.71 L 4091.28 3448.25 L 4090.93 3448.61 L 4090.57 3448.79 L 4090.03 3448.79 L 4089.67 3448.61 L 4089.32 3448.25 M 4092.64 3445.03 L 4092.82 3445.21 L 4093 3445.03 L 4092.82 3444.85 L 4092.64 3445.03 M 4092.82 3446.28 L 4092.82 3448.79 M 4094.18 3446.28 L 4094.18 3448.79 M 4094.18 3447 L 4094.72 3446.46 L 4095.08 3446.28 L 4095.61 3446.28 L 4095.97 3446.46 L 4096.15 3447 L 4096.15 3448.79" fill="none"  stroke-width="0.8"  /></g><g c_partid="part_pcbtext" c_etype="pinpart" c_origin="4075.5,3459" c_rotation="0" c_mirror="0" id="gge3634" locked="0" layerid="1" c_shapetype="group" ><path c_fontsize="3.937" c_fontfamily="" c_text="D4 pin" d="M 4075.5 3455.03 L 4075.5 3458.79 M 4075.5 3455.03 L 4076.75 3455.03 L 4077.29 3455.21 L 4077.65 3455.56 L 4077.83 3455.92 L 4078.01 3456.46 L 4078.01 3457.35 L 4077.83 3457.89 L 4077.65 3458.25 L 4077.29 3458.61 L 4076.75 3458.79 L 4075.5 3458.79 M 4080.98 3455.03 L 4079.19 3457.53 L 4081.87 3457.53 M 4080.98 3455.03 L 4080.98 3458.79 M 4085.81 3456.28 L 4085.81 3460.04 M 4085.81 3456.82 L 4086.17 3456.46 L 4086.52 3456.28 L 4087.06 3456.28 L 4087.42 3456.46 L 4087.78 3456.82 L 4087.96 3457.35 L 4087.96 3457.71 L 4087.78 3458.25 L 4087.42 3458.61 L 4087.06 3458.79 L 4086.52 3458.79 L 4086.17 3458.61 L 4085.81 3458.25 M 4089.14 3455.03 L 4089.32 3455.21 L 4089.49 3455.03 L 4089.32 3454.85 L 4089.14 3455.03 M 4089.32 3456.28 L 4089.32 3458.79 M 4090.68 3456.28 L 4090.68 3458.79 M 4090.68 3457 L 4091.21 3456.46 L 4091.57 3456.28 L 4092.11 3456.28 L 4092.46 3456.46 L 4092.64 3457 L 4092.64 3458.79" fill="none"  stroke-width="0.8"  /></g><g c_partid="part_pad" c_etype="pinpart" c_origin="3968,3342" layerid="11" number="1" net="3.3V" plated ="Y"  id="gge648" locked="0" c_rotation="0" c_width="6" c_height="6" title="3.3V" c_shape="ELLIPSE" pasteexpansion="0" solderexpansion="0.2"><ellipse c_etype="pad_shell" cx="3968" cy="3342" rx="3" ry="3" layerid="11" stroke-width="0"/><circle c_etype="pad_hole" cx="3968" cy="3342" r="1.8" layerid="11" stroke-width="0"/></g><g c_partid="part_pad" c_etype="pinpart" c_origin="3968,3352" layerid="11" number="2" net="U1_2" plated ="Y"  id="gge663" locked="0" c_rotation="0" c_width="6" c_height="6" title="U1_2" c_shape="ELLIPSE" pasteexpansion="0" solderexpansion="0.2"><ellipse c_etype="pad_shell" cx="3968" cy="3352" rx="3" ry="3" layerid="11" stroke-width="0"/><circle c_etype="pad_hole" cx="3968" cy="3352" r="1.8" layerid="11" stroke-width="0"/></g><g c_partid="part_pad" c_etype="pinpart" c_origin="3968,3362" layerid="11" number="3" net="U1_3" plated ="Y"  id="gge678" locked="0" c_rotation="0" c_width="6" c_height="6" title="U1_3" c_shape="ELLIPSE" pasteexpansion="0" solderexpansion="0.2"><ellipse c_etype="pad_shell" cx="3968" cy="3362" rx="3" ry="3" layerid="11" stroke-width="0"/><circle c_etype="pad_hole" cx="3968" cy="3362" r="1.8" layerid="11" stroke-width="0"/></g><g c_partid="part_pad" c_etype="pinpart" c_origin="3968,3372" layerid="11" number="4" net="U1_4" plated ="Y"  id="gge693" locked="0" c_rotation="0" c_width="6" c_height="6" title="U1_4" c_shape="ELLIPSE" pasteexpansion="0" solderexpansion="0.2"><ellipse c_etype="pad_shell" cx="3968" cy="3372" rx="3" ry="3" layerid="11" stroke-width="0"/><circle c_etype="pad_hole" cx="3968" cy="3372" r="1.8" layerid="11" stroke-width="0"/></g><g c_partid="part_pad" c_etype="pinpart" c_origin="3968,3382" layerid="11" number="5" net="U1_5" plated ="Y"  id="gge708" locked="0" c_rotation="0" c_width="6" c_height="6" title="U1_5" c_shape="ELLIPSE" pasteexpansion="0" solderexpansion="0.2"><ellipse c_etype="pad_shell" cx="3968" cy="3382" rx="3" ry="3" layerid="11" stroke-width="0"/><circle c_etype="pad_hole" cx="3968" cy="3382" r="1.8" layerid="11" stroke-width="0"/></g><g c_partid="part_pad" c_etype="pinpart" c_origin="3968,3392" layerid="11" number="6" net="U1_6" plated ="Y"  id="gge723" locked="0" c_rotation="0" c_width="6" c_height="6" title="U1_6" c_shape="ELLIPSE" pasteexpansion="0" solderexpansion="0.2"><ellipse c_etype="pad_shell" cx="3968" cy="3392" rx="3" ry="3" layerid="11" stroke-width="0"/><circle c_etype="pad_hole" cx="3968" cy="3392" r="1.8" layerid="11" stroke-width="0"/></g><g c_partid="part_pad" c_etype="pinpart" c_origin="3968,3402" layerid="11" number="7" net="U1_7" plated ="Y"  id="gge738" locked="0" c_rotation="0" c_width="6" c_height="6" title="U1_7" c_shape="ELLIPSE" pasteexpansion="0" solderexpansion="0.2"><ellipse c_etype="pad_shell" cx="3968" cy="3402" rx="3" ry="3" layerid="11" stroke-width="0"/><circle c_etype="pad_hole" cx="3968" cy="3402" r="1.8" layerid="11" stroke-width="0"/></g><g c_partid="part_pad" c_etype="pinpart" c_origin="3968,3412" layerid="11" number="8" net="U1_8" plated ="Y"  id="gge753" locked="0" c_rotation="0" c_width="6" c_height="6" title="U1_8" c_shape="ELLIPSE" pasteexpansion="0" solderexpansion="0.2"><ellipse c_etype="pad_shell" cx="3968" cy="3412" rx="3" ry="3" layerid="11" stroke-width="0"/><circle c_etype="pad_hole" cx="3968" cy="3412" r="1.8" layerid="11" stroke-width="0"/></g><g c_partid="part_pad" c_etype="pinpart" c_origin="3968,3422" layerid="11" number="9" net="U1_9" plated ="Y"  id="gge768" locked="0" c_rotation="0" c_width="6" c_height="6" title="U1_9" c_shape="ELLIPSE" pasteexpansion="0" solderexpansion="0.2"><ellipse c_etype="pad_shell" cx="3968" cy="3422" rx="3" ry="3" layerid="11" stroke-width="0"/><circle c_etype="pad_hole" cx="3968" cy="3422" r="1.8" layerid="11" stroke-width="0"/></g><g c_partid="part_pad" c_etype="pinpart" c_origin="3968,3432" layerid="11" number="10" net="U1_10" plated ="Y"  id="gge783" locked="0" c_rotation="0" c_width="6" c_height="6" title="U1_10" c_shape="ELLIPSE" pasteexpansion="0" solderexpansion="0.2"><ellipse c_etype="pad_shell" cx="3968" cy="3432" rx="3" ry="3" layerid="11" stroke-width="0"/><circle c_etype="pad_hole" cx="3968" cy="3432" r="1.8" layerid="11" stroke-width="0"/></g><g c_partid="part_pad" c_etype="pinpart" c_origin="3968,3442" layerid="11" number="11" net="U1_11" plated ="Y"  id="gge798" locked="0" c_rotation="0" c_width="6" c_height="6" title="U1_11" c_shape="ELLIPSE" pasteexpansion="0" solderexpansion="0.2"><ellipse c_etype="pad_shell" cx="3968" cy="3442" rx="3" ry="3" layerid="11" stroke-width="0"/><circle c_etype="pad_hole" cx="3968" cy="3442" r="1.8" layerid="11" stroke-width="0"/></g><g c_partid="part_pad" c_etype="pinpart" c_origin="3968,3452" layerid="11" number="12" net="U1_12" plated ="Y"  id="gge813" locked="0" c_rotation="0" c_width="6" c_height="6" title="U1_12" c_shape="ELLIPSE" pasteexpansion="0" solderexpansion="0.2"><ellipse c_etype="pad_shell" cx="3968" cy="3452" rx="3" ry="3" layerid="11" stroke-width="0"/><circle c_etype="pad_hole" cx="3968" cy="3452" r="1.8" layerid="11" stroke-width="0"/></g><g c_partid="part_pad" c_etype="pinpart" c_origin="3968,3462" layerid="11" number="13" net="U1_13" plated ="Y"  id="gge828" locked="0" c_rotation="0" c_width="6" c_height="6" title="U1_13" c_shape="ELLIPSE" pasteexpansion="0" solderexpansion="0.2"><ellipse c_etype="pad_shell" cx="3968" cy="3462" rx="3" ry="3" layerid="11" stroke-width="0"/><circle c_etype="pad_hole" cx="3968" cy="3462" r="1.8" layerid="11" stroke-width="0"/></g><g c_partid="part_pad" c_etype="pinpart" c_origin="3968,3472" layerid="11" number="14" net="U1_14" plated ="Y"  id="gge843" locked="0" c_rotation="0" c_width="6" c_height="6" title="U1_14" c_shape="ELLIPSE" pasteexpansion="0" solderexpansion="0.2"><ellipse c_etype="pad_shell" cx="3968" cy="3472" rx="3" ry="3" layerid="11" stroke-width="0"/><circle c_etype="pad_hole" cx="3968" cy="3472" r="1.8" layerid="11" stroke-width="0"/></g><g c_partid="part_pad" c_etype="pinpart" c_origin="3968,3482" layerid="11" number="15" net="U1_15" plated ="Y"  id="gge858" locked="0" c_rotation="0" c_width="6" c_height="6" title="U1_15" c_shape="ELLIPSE" pasteexpansion="0" solderexpansion="0.2"><ellipse c_etype="pad_shell" cx="3968" cy="3482" rx="3" ry="3" layerid="11" stroke-width="0"/><circle c_etype="pad_hole" cx="3968" cy="3482" r="1.8" layerid="11" stroke-width="0"/></g><g c_partid="part_pad" c_etype="pinpart" c_origin="3968,3492" layerid="11" number="16" net="U1_16" plated ="Y"  id="gge873" locked="0" c_rotation="0" c_width="6" c_height="6" title="U1_16" c_shape="ELLIPSE" pasteexpansion="0" solderexpansion="0.2"><ellipse c_etype="pad_shell" cx="3968" cy="3492" rx="3" ry="3" layerid="11" stroke-width="0"/><circle c_etype="pad_hole" cx="3968" cy="3492" r="1.8" layerid="11" stroke-width="0"/></g><g c_partid="part_pad" c_etype="pinpart" c_origin="3968,3502" layerid="11" number="17" net="U1_17" plated ="Y"  id="gge888" locked="0" c_rotation="0" c_width="6" c_height="6" title="U1_17" c_shape="ELLIPSE" pasteexpansion="0" solderexpansion="0.2"><ellipse c_etype="pad_shell" cx="3968" cy="3502" rx="3" ry="3" layerid="11" stroke-width="0"/><circle c_etype="pad_hole" cx="3968" cy="3502" r="1.8" layerid="11" stroke-width="0"/></g><g c_partid="part_pad" c_etype="pinpart" c_origin="3968,3512" layerid="11" number="18" net="U1_18" plated ="Y"  id="gge903" locked="0" c_rotation="0" c_width="6" c_height="6" title="U1_18" c_shape="ELLIPSE" pasteexpansion="0" solderexpansion="0.2"><ellipse c_etype="pad_shell" cx="3968" cy="3512" rx="3" ry="3" layerid="11" stroke-width="0"/><circle c_etype="pad_hole" cx="3968" cy="3512" r="1.8" layerid="11" stroke-width="0"/></g><g c_partid="part_pad" c_etype="pinpart" c_origin="3968,3522" layerid="11" number="19" net="U1_19" plated ="Y"  id="gge918" locked="0" c_rotation="0" c_width="6" c_height="6" title="U1_19" c_shape="ELLIPSE" pasteexpansion="0" solderexpansion="0.2"><ellipse c_etype="pad_shell" cx="3968" cy="3522" rx="3" ry="3" layerid="11" stroke-width="0"/><circle c_etype="pad_hole" cx="3968" cy="3522" r="1.8" layerid="11" stroke-width="0"/></g><g c_partid="part_pad" c_etype="pinpart" c_origin="4068,3522" layerid="11" number="20" net="U1_20" plated ="Y"  id="gge933" locked="0" c_rotation="0" c_width="6" c_height="6" title="U1_20" c_shape="ELLIPSE" pasteexpansion="0" solderexpansion="0.2"><ellipse c_etype="pad_shell" cx="4068" cy="3522" rx="3" ry="3" layerid="11" stroke-width="0"/><circle c_etype="pad_hole" cx="4068.0003" cy="3522" r="1.8" layerid="11" stroke-width="0"/></g><g c_partid="part_pad" c_etype="pinpart" c_origin="4068,3512" layerid="11" number="21" net="U1_21" plated ="Y"  id="gge948" locked="0" c_rotation="0" c_width="6" c_height="6" title="U1_21" c_shape="ELLIPSE" pasteexpansion="0" solderexpansion="0.2"><ellipse c_etype="pad_shell" cx="4068" cy="3512" rx="3" ry="3" layerid="11" stroke-width="0"/><circle c_etype="pad_hole" cx="4068.0003" cy="3512" r="1.8" layerid="11" stroke-width="0"/></g><g c_partid="part_pad" c_etype="pinpart" c_origin="4068,3502" layerid="11" number="22" net="U1_22" plated ="Y"  id="gge963" locked="0" c_rotation="0" c_width="6" c_height="6" title="U1_22" c_shape="ELLIPSE" pasteexpansion="0" solderexpansion="0.2"><ellipse c_etype="pad_shell" cx="4068" cy="3502" rx="3" ry="3" layerid="11" stroke-width="0"/><circle c_etype="pad_hole" cx="4068.0003" cy="3502" r="1.8" layerid="11" stroke-width="0"/></g><g c_partid="part_pad" c_etype="pinpart" c_origin="4068,3492" layerid="11" number="23" net="U1_23" plated ="Y"  id="gge978" locked="0" c_rotation="0" c_width="6" c_height="6" title="U1_23" c_shape="ELLIPSE" pasteexpansion="0" solderexpansion="0.2"><ellipse c_etype="pad_shell" cx="4068" cy="3492" rx="3" ry="3" layerid="11" stroke-width="0"/><circle c_etype="pad_hole" cx="4068.0003" cy="3492" r="1.8" layerid="11" stroke-width="0"/></g><g c_partid="part_pad" c_etype="pinpart" c_origin="4068,3482" layerid="11" number="24" net="U1_24" plated ="Y"  id="gge993" locked="0" c_rotation="0" c_width="6" c_height="6" title="U1_24" c_shape="ELLIPSE" pasteexpansion="0" solderexpansion="0.2"><ellipse c_etype="pad_shell" cx="4068" cy="3482" rx="3" ry="3" layerid="11" stroke-width="0"/><circle c_etype="pad_hole" cx="4068.0003" cy="3482" r="1.8" layerid="11" stroke-width="0"/></g><g c_partid="part_pad" c_etype="pinpart" c_origin="4068,3472" layerid="11" number="25" net="U1_25" plated ="Y"  id="gge1008" locked="0" c_rotation="0" c_width="6" c_height="6" title="U1_25" c_shape="ELLIPSE" pasteexpansion="0" solderexpansion="0.2"><ellipse c_etype="pad_shell" cx="4068" cy="3472" rx="3" ry="3" layerid="11" stroke-width="0"/><circle c_etype="pad_hole" cx="4068.0003" cy="3472" r="1.8" layerid="11" stroke-width="0"/></g><g c_partid="part_pad" c_etype="pinpart" c_origin="4068,3462" layerid="11" number="26" net="U1_26" plated ="Y"  id="gge1023" locked="0" c_rotation="0" c_width="6" c_height="6" title="U1_26" c_shape="ELLIPSE" pasteexpansion="0" solderexpansion="0.2"><ellipse c_etype="pad_shell" cx="4068" cy="3462" rx="3" ry="3" layerid="11" stroke-width="0"/><circle c_etype="pad_hole" cx="4068.0003" cy="3462" r="1.8" layerid="11" stroke-width="0"/></g><g c_partid="part_pad" c_etype="pinpart" c_origin="4068,3452" layerid="11" number="27" net="H3_2" plated ="Y"  id="gge1038" locked="0" c_rotation="0" c_width="6" c_height="6" title="H3_2" c_shape="ELLIPSE" pasteexpansion="0" solderexpansion="0.2"><ellipse c_etype="pad_shell" cx="4068" cy="3452" rx="3" ry="3" layerid="11" stroke-width="0"/><circle c_etype="pad_hole" cx="4068.0003" cy="3452" r="1.8" layerid="11" stroke-width="0"/></g><g c_partid="part_pad" c_etype="pinpart" c_origin="4068,3442" layerid="11" number="28" net="U1_28" plated ="Y"  id="gge1053" locked="0" c_rotation="0" c_width="6" c_height="6" title="U1_28" c_shape="ELLIPSE" pasteexpansion="0" solderexpansion="0.2"><ellipse c_etype="pad_shell" cx="4068" cy="3442" rx="3" ry="3" layerid="11" stroke-width="0"/><circle c_etype="pad_hole" cx="4068.0003" cy="3442" r="1.8" layerid="11" stroke-width="0"/></g><g c_partid="part_pad" c_etype="pinpart" c_origin="4068,3432" layerid="11" number="29" net="U1_29" plated ="Y"  id="gge1068" locked="0" c_rotation="0" c_width="6" c_height="6" title="U1_29" c_shape="ELLIPSE" pasteexpansion="0" solderexpansion="0.2"><ellipse c_etype="pad_shell" cx="4068" cy="3432" rx="3" ry="3" layerid="11" stroke-width="0"/><circle c_etype="pad_hole" cx="4068.0003" cy="3432" r="1.8" layerid="11" stroke-width="0"/></g><g c_partid="part_pad" c_etype="pinpart" c_origin="4068,3422" layerid="11" number="30" net="U1_30" plated ="Y"  id="gge1083" locked="0" c_rotation="0" c_width="6" c_height="6" title="U1_30" c_shape="ELLIPSE" pasteexpansion="0" solderexpansion="0.2"><ellipse c_etype="pad_shell" cx="4068" cy="3422" rx="3" ry="3" layerid="11" stroke-width="0"/><circle c_etype="pad_hole" cx="4068.0003" cy="3422" r="1.8" layerid="11" stroke-width="0"/></g><g c_partid="part_pad" c_etype="pinpart" c_origin="4068,3412" layerid="11" number="31" net="U1_31" plated ="Y"  id="gge1098" locked="0" c_rotation="0" c_width="6" c_height="6" title="U1_31" c_shape="ELLIPSE" pasteexpansion="0" solderexpansion="0.2"><ellipse c_etype="pad_shell" cx="4068" cy="3412" rx="3" ry="3" layerid="11" stroke-width="0"/><circle c_etype="pad_hole" cx="4068.0003" cy="3412" r="1.8" layerid="11" stroke-width="0"/></g><g c_partid="part_pad" c_etype="pinpart" c_origin="4068,3402" layerid="11" number="32" net="U1_32" plated ="Y"  id="gge1113" locked="0" c_rotation="0" c_width="6" c_height="6" title="U1_32" c_shape="ELLIPSE" pasteexpansion="0" solderexpansion="0.2"><ellipse c_etype="pad_shell" cx="4068" cy="3402" rx="3" ry="3" layerid="11" stroke-width="0"/><circle c_etype="pad_hole" cx="4068.0003" cy="3402" r="1.8" layerid="11" stroke-width="0"/></g><g c_partid="part_pad" c_etype="pinpart" c_origin="4068,3392" layerid="11" number="33" net="U1_33" plated ="Y"  id="gge1128" locked="0" c_rotation="0" c_width="6" c_height="6" title="U1_33" c_shape="ELLIPSE" pasteexpansion="0" solderexpansion="0.2"><ellipse c_etype="pad_shell" cx="4068" cy="3392" rx="3" ry="3" layerid="11" stroke-width="0"/><circle c_etype="pad_hole" cx="4068.0003" cy="3392" r="1.8" layerid="11" stroke-width="0"/></g><g c_partid="part_pad" c_etype="pinpart" c_origin="4068,3382" layerid="11" number="34" net="U1_34" plated ="Y"  id="gge1143" locked="0" c_rotation="0" c_width="6" c_height="6" title="U1_34" c_shape="ELLIPSE" pasteexpansion="0" solderexpansion="0.2"><ellipse c_etype="pad_shell" cx="4068" cy="3382" rx="3" ry="3" layerid="11" stroke-width="0"/><circle c_etype="pad_hole" cx="4068.0003" cy="3382" r="1.8" layerid="11" stroke-width="0"/></g><g c_partid="part_pad" c_etype="pinpart" c_origin="4068,3372" layerid="11" number="35" net="U1_35" plated ="Y"  id="gge1158" locked="0" c_rotation="0" c_width="6" c_height="6" title="U1_35" c_shape="ELLIPSE" pasteexpansion="0" solderexpansion="0.2"><ellipse c_etype="pad_shell" cx="4068" cy="3372" rx="3" ry="3" layerid="11" stroke-width="0"/><circle c_etype="pad_hole" cx="4068.0003" cy="3372" r="1.8" layerid="11" stroke-width="0"/></g><g c_partid="part_pad" c_etype="pinpart" c_origin="4068,3362" layerid="11" number="36" net="U1_36" plated ="Y"  id="gge1173" locked="0" c_rotation="0" c_width="6" c_height="6" title="U1_36" c_shape="ELLIPSE" pasteexpansion="0" solderexpansion="0.2"><ellipse c_etype="pad_shell" cx="4068" cy="3362" rx="3" ry="3" layerid="11" stroke-width="0"/><circle c_etype="pad_hole" cx="4068.0003" cy="3362" r="1.8" layerid="11" stroke-width="0"/></g><g c_partid="part_pad" c_etype="pinpart" c_origin="4068,3352" layerid="11" number="37" net="U1_37" plated ="Y"  id="gge1188" locked="0" c_rotation="0" c_width="6" c_height="6" title="U1_37" c_shape="ELLIPSE" pasteexpansion="0" solderexpansion="0.2"><ellipse c_etype="pad_shell" cx="4068" cy="3352" rx="3" ry="3" layerid="11" stroke-width="0"/><circle c_etype="pad_hole" cx="4068.0003" cy="3352" r="1.8" layerid="11" stroke-width="0"/></g><g c_partid="part_pad" c_etype="pinpart" c_origin="4068,3342" layerid="11" number="38" net="H3_1" plated ="Y"  id="gge1203" locked="0" c_rotation="0" c_width="6" c_height="6" title="H3_1" c_shape="ELLIPSE" pasteexpansion="0" solderexpansion="0.2"><ellipse c_etype="pad_shell" cx="4068" cy="3342" rx="3" ry="3" layerid="11" stroke-width="0"/><circle c_etype="pad_hole" cx="4068.0002" cy="3342" r="1.8" layerid="11" stroke-width="0"/></g><g c_partid="part_pad" c_etype="pinpart" c_origin="4150,3484" layerid="11" number="1" net="R1_2" plated ="Y"  id="gge2563" locked="0" c_rotation="270" c_width="6.2" c_height="6.2" title="R1_2" c_shape="RECT" pasteexpansion="0" solderexpansion="0.2"><polygon  c_etype="pad_shell" points="4153.1 3480.9 4153.1 3487.1 4146.9 3487.1 4146.9 3480.9" layerid="11" stroke-width="0" /><circle c_etype="pad_hole" cx="4150" cy="3484" r="1.75" layerid="11" stroke-width="0"/></g><g c_partid="part_pad" c_etype="pinpart" c_origin="4085.5,3484" layerid="11" number="1" net="U1_26" plated ="Y"  id="gge2632" locked="0" c_rotation="0" c_width="7.4" c_height="7.4" title="U1_26" c_shape="ELLIPSE" pasteexpansion="0" solderexpansion="0.2"><ellipse c_etype="pad_shell" cx="4085.5" cy="3484" rx="3.7" ry="3.7" layerid="11" stroke-width="0"/><circle c_etype="pad_hole" cx="4085.5" cy="3484" r="1.77" layerid="11" stroke-width="0"/></g><g c_partid="part_pad" c_etype="pinpart" c_origin="4125.5,3484" layerid="11" number="2" net="R1_2" plated ="Y"  id="gge2647" locked="0" c_rotation="0" c_width="7.4" c_height="7.4" title="R1_2" c_shape="ELLIPSE" pasteexpansion="0" solderexpansion="0.2"><ellipse c_etype="pad_shell" cx="4125.5" cy="3484" rx="3.7" ry="3.7" layerid="11" stroke-width="0"/><circle c_etype="pad_hole" cx="4125.5" cy="3484" r="1.77" layerid="11" stroke-width="0"/></g><g c_partid="part_pad" c_etype="pinpart" c_origin="4138,3432" layerid="11" number="1" net="H3_1" plated ="Y"  id="gge3541" locked="0" c_rotation="270" c_width="6.2" c_height="6.2" title="H3_1" c_shape="RECT" pasteexpansion="0" solderexpansion="0.2"><polygon  c_etype="pad_shell" points="4141.1 3428.9 4141.1 3435.1 4134.9 3435.1 4134.9 3428.9" layerid="11" stroke-width="0" /><circle c_etype="pad_hole" cx="4138" cy="3432" r="1.75" layerid="11" stroke-width="0"/></g><g c_partid="part_pad" c_etype="pinpart" c_origin="4138,3442" layerid="11" number="2" net="H3_2" plated ="Y"  id="gge3556" locked="0" c_rotation="270" c_width="6.2" c_height="6.2" title="H3_2" c_shape="ELLIPSE" pasteexpansion="0" solderexpansion="0.2"><ellipse c_etype="pad_shell" cx="4138" cy="3442" rx="3.1" ry="3.1" layerid="11" stroke-width="0"/><circle c_etype="pad_hole" cx="4138" cy="3442" r="1.75" layerid="11" stroke-width="0"/></g><g c_partid="part_pad" c_etype="pinpart" c_origin="4138,3452" layerid="11" number="3" net="" plated ="Y"  id="gge3571" locked="0" c_rotation="270" c_width="6.2" c_height="6.2" title="" c_shape="ELLIPSE" pasteexpansion="0" solderexpansion="0.2"><ellipse c_etype="pad_shell" cx="4138" cy="3452" rx="3.1" ry="3.1" layerid="11" stroke-width="0"/><circle c_etype="pad_hole" cx="4138" cy="3452" r="1.75" layerid="11" stroke-width="0"/></g><g c_partid="part_pad" c_etype="pinpart" c_origin="4138,3462" layerid="11" number="4" net="3.3V" plated ="Y"  id="gge3586" locked="0" c_rotation="270" c_width="6.2" c_height="6.2" title="3.3V" c_shape="ELLIPSE" pasteexpansion="0" solderexpansion="0.2"><ellipse c_etype="pad_shell" cx="4138" cy="3462" rx="3.1" ry="3.1" layerid="11" stroke-width="0"/><circle c_etype="pad_hole" cx="4138" cy="3462" r="1.75" layerid="11" stroke-width="0"/></g><polyline points="4053.5 3356.5 4053.5 3354.4963" stroke-width="1"  stroke-linecap="round" fill="none" layerid="3" net="" id="gge348" locked="0" /><polyline points="3982.4999 3354.5 3982.4999 3356.5037" stroke-width="1"  stroke-linecap="round" fill="none" layerid="3" net="" id="gge351" locked="0" /><polyline points="4053.697 3430.1536 4053.697 3426.8669" stroke-width="1"  stroke-linecap="round" fill="none" layerid="3" net="" id="gge354" locked="0" /><polyline points="4043.3787 3430.1536 4053.697 3430.1536" stroke-width="1"  stroke-linecap="round" fill="none" layerid="3" net="" id="gge357" locked="0" /><polyline points="3982.7639 3426.8667 3982.7639 3430.1536 3993.0154 3430.1536" stroke-width="1"  stroke-linecap="round" fill="none" layerid="3" net="" id="gge360" locked="0" /><polyline points="3989.2639 3350 3989.2639 3331.5 3998.7639 3331.5 3998.7639 3341 4008.7639 3341 4008.7639 3331.5 4018.7639 3331.5 4018.7639 3341 4028.7639 3341 4028.7639 3331.5 4038.7639 3331.5 4038.7639 3350.5" stroke-width="1"  stroke-linecap="round" fill="none" layerid="3" net="" id="gge363" locked="0" /><polyline points="4038.7639 3331.5 4046.7639 3331.5 4046.7639 3350.5" stroke-width="1"  stroke-linecap="round" fill="none" layerid="3" net="" id="gge366" locked="0" /><polyline points="4002.449 3520.189 4033.551 3520.189 4033.551 3543.811 4002.449 3543.811 4002.449 3520.189" stroke-width="1"  stroke-linecap="round" fill="none" layerid="3" net="" id="gge369" locked="0" /><polyline points="3982.5 3326.941 4053.5 3326.941 4053.5 3354.5 3982.5 3354.5 3982.5 3326.941" stroke-width="1"  stroke-linecap="round" fill="none" layerid="3" net="" id="gge372" locked="0" /><polyline points="3961.819 3324 4074.181 3324 4074.181 3540.378 3961.819 3540.378 3961.819 3324" stroke-width="1"  stroke-linecap="round" fill="none" layerid="3" net="" id="gge375" locked="0" /><polyline points="4038.75 3424.154 4042.25 3424.154 4042.25 3432.154 4038.75 3432.154 4038.75 3424.154" stroke-width="1"  stroke-linecap="round" fill="none" layerid="3" net="" id="gge384" locked="0" /><polyline points="4033.75 3424.154 4037.25 3424.154 4037.25 3432.154 4033.75 3432.154 4033.75 3424.154" stroke-width="1"  stroke-linecap="round" fill="none" layerid="3" net="" id="gge387" locked="0" /><polyline points="4028.75 3424.154 4032.25 3424.154 4032.25 3432.154 4028.75 3432.154 4028.75 3424.154" stroke-width="1"  stroke-linecap="round" fill="none" layerid="3" net="" id="gge390" locked="0" /><polyline points="4023.75 3424.154 4027.25 3424.154 4027.25 3432.154 4023.75 3432.154 4023.75 3424.154" stroke-width="1"  stroke-linecap="round" fill="none" layerid="3" net="" id="gge393" locked="0" /><polyline points="4018.75 3424.154 4022.25 3424.154 4022.25 3432.154 4018.75 3432.154 4018.75 3424.154" stroke-width="1"  stroke-linecap="round" fill="none" layerid="3" net="" id="gge396" locked="0" /><polyline points="4013.75 3424.154 4017.25 3424.154 4017.25 3432.154 4013.75 3432.154 4013.75 3424.154" stroke-width="1"  stroke-linecap="round" fill="none" layerid="3" net="" id="gge399" locked="0" /><polyline points="4008.75 3424.154 4012.25 3424.154 4012.25 3432.154 4008.75 3432.154 4008.75 3424.154" stroke-width="1"  stroke-linecap="round" fill="none" layerid="3" net="" id="gge402" locked="0" /><polyline points="4003.75 3424.154 4007.25 3424.154 4007.25 3432.154 4003.75 3432.154 4003.75 3424.154" stroke-width="1"  stroke-linecap="round" fill="none" layerid="3" net="" id="gge405" locked="0" /><polyline points="3998.75 3424.154 4002.25 3424.154 4002.25 3432.154 3998.75 3432.154 3998.75 3424.154" stroke-width="1"  stroke-linecap="round" fill="none" layerid="3" net="" id="gge408" locked="0" /><polyline points="3993.25 3424.154 3997.25 3424.154 3997.25 3432.154 3993.25 3432.154 3993.25 3424.154" stroke-width="1"  stroke-linecap="round" fill="none" layerid="3" net="" id="gge411" locked="0" /><polyline points="4047.764 3357.654 4055.764 3357.654 4055.764 3361.154 4047.764 3361.154 4047.764 3357.654" stroke-width="1"  stroke-linecap="round" fill="none" layerid="3" net="" id="gge414" locked="0" /><polyline points="4047.764 3362.654 4055.764 3362.654 4055.764 3366.154 4047.764 3366.154 4047.764 3362.654" stroke-width="1"  stroke-linecap="round" fill="none" layerid="3" net="" id="gge417" locked="0" /><polyline points="4047.764 3367.654 4055.764 3367.654 4055.764 3371.154 4047.764 3371.154 4047.764 3367.654" stroke-width="1"  stroke-linecap="round" fill="none" layerid="3" net="" id="gge420" locked="0" /><polyline points="4047.764 3372.654 4055.764 3372.654 4055.764 3376.154 4047.764 3376.154 4047.764 3372.654" stroke-width="1"  stroke-linecap="round" fill="none" layerid="3" net="" id="gge423" locked="0" /><polyline points="4047.764 3377.654 4055.764 3377.654 4055.764 3381.154 4047.764 3381.154 4047.764 3377.654" stroke-width="1"  stroke-linecap="round" fill="none" layerid="3" net="" id="gge426" locked="0" /><polyline points="4047.764 3382.654 4055.764 3382.654 4055.764 3386.154 4047.764 3386.154 4047.764 3382.654" stroke-width="1"  stroke-linecap="round" fill="none" layerid="3" net="" id="gge429" locked="0" /><polyline points="4047.764 3387.654 4055.764 3387.654 4055.764 3391.154 4047.764 3391.154 4047.764 3387.654" stroke-width="1"  stroke-linecap="round" fill="none" layerid="3" net="" id="gge432" locked="0" /><polyline points="4047.764 3392.654 4055.764 3392.654 4055.764 3396.154 4047.764 3396.154 4047.764 3392.654" stroke-width="1"  stroke-linecap="round" fill="none" layerid="3" net="" id="gge435" locked="0" /><polyline points="4047.764 3397.654 4055.764 3397.654 4055.764 3401.154 4047.764 3401.154 4047.764 3397.654" stroke-width="1"  stroke-linecap="round" fill="none" layerid="3" net="" id="gge438" locked="0" /><polyline points="4047.764 3402.654 4055.764 3402.654 4055.764 3406.154 4047.764 3406.154 4047.764 3402.654" stroke-width="1"  stroke-linecap="round" fill="none" layerid="3" net="" id="gge441" locked="0" /><polyline points="4047.764 3407.654 4055.764 3407.654 4055.764 3411.154 4047.764 3411.154 4047.764 3407.654" stroke-width="1"  stroke-linecap="round" fill="none" layerid="3" net="" id="gge444" locked="0" /><polyline points="4047.764 3412.654 4055.764 3412.654 4055.764 3416.154 4047.764 3416.154 4047.764 3412.654" stroke-width="1"  stroke-linecap="round" fill="none" layerid="3" net="" id="gge447" locked="0" /><polyline points="4047.764 3417.654 4055.764 3417.654 4055.764 3421.154 4047.764 3421.154 4047.764 3417.654" stroke-width="1"  stroke-linecap="round" fill="none" layerid="3" net="" id="gge450" locked="0" /><polyline points="4047.764 3422.654 4055.764 3422.654 4055.764 3426.154 4047.764 3426.154 4047.764 3422.654" stroke-width="1"  stroke-linecap="round" fill="none" layerid="3" net="" id="gge453" locked="0" /><polyline points="3980.236 3422.654 3988.236 3422.654 3988.236 3426.154 3980.236 3426.154 3980.236 3422.654" stroke-width="1"  stroke-linecap="round" fill="none" layerid="3" net="" id="gge456" locked="0" /><polyline points="3980.236 3417.654 3988.236 3417.654 3988.236 3421.154 3980.236 3421.154 3980.236 3417.654" stroke-width="1"  stroke-linecap="round" fill="none" layerid="3" net="" id="gge459" locked="0" /><polyline points="3980.236 3412.654 3988.236 3412.654 3988.236 3416.154 3980.236 3416.154 3980.236 3412.654" stroke-width="1"  stroke-linecap="round" fill="none" layerid="3" net="" id="gge462" locked="0" /><polyline points="3980.236 3407.654 3988.236 3407.654 3988.236 3411.154 3980.236 3411.154 3980.236 3407.654" stroke-width="1"  stroke-linecap="round" fill="none" layerid="3" net="" id="gge465" locked="0" /><polyline points="3980.236 3402.654 3988.236 3402.654 3988.236 3406.154 3980.236 3406.154 3980.236 3402.654" stroke-width="1"  stroke-linecap="round" fill="none" layerid="3" net="" id="gge468" locked="0" /><polyline points="3980.236 3397.654 3988.236 3397.654 3988.236 3401.154 3980.236 3401.154 3980.236 3397.654" stroke-width="1"  stroke-linecap="round" fill="none" layerid="3" net="" id="gge471" locked="0" /><polyline points="3980.236 3392.654 3988.236 3392.654 3988.236 3396.154 3980.236 3396.154 3980.236 3392.654" stroke-width="1"  stroke-linecap="round" fill="none" layerid="3" net="" id="gge474" locked="0" /><polyline points="3980.236 3387.654 3988.236 3387.654 3988.236 3391.154 3980.236 3391.154 3980.236 3387.654" stroke-width="1"  stroke-linecap="round" fill="none" layerid="3" net="" id="gge477" locked="0" /><polyline points="3980.236 3382.654 3988.236 3382.654 3988.236 3386.154 3980.236 3386.154 3980.236 3382.654" stroke-width="1"  stroke-linecap="round" fill="none" layerid="3" net="" id="gge480" locked="0" /><polyline points="3980.236 3377.654 3988.236 3377.654 3988.236 3381.154 3980.236 3381.154 3980.236 3377.654" stroke-width="1"  stroke-linecap="round" fill="none" layerid="3" net="" id="gge483" locked="0" /><polyline points="3980.236 3372.654 3988.236 3372.654 3988.236 3376.154 3980.236 3376.154 3980.236 3372.654" stroke-width="1"  stroke-linecap="round" fill="none" layerid="3" net="" id="gge486" locked="0" /><polyline points="3980.236 3367.654 3988.236 3367.654 3988.236 3371.154 3980.236 3371.154 3980.236 3367.654" stroke-width="1"  stroke-linecap="round" fill="none" layerid="3" net="" id="gge489" locked="0" /><polyline points="3980.236 3362.654 3988.236 3362.654 3988.236 3366.154 3980.236 3366.154 3980.236 3362.654" stroke-width="1"  stroke-linecap="round" fill="none" layerid="3" net="" id="gge492" locked="0" /><polyline points="3980.236 3357.654 3988.236 3357.654 3988.236 3361.154 3980.236 3361.154 3980.236 3357.654" stroke-width="1"  stroke-linecap="round" fill="none" layerid="3" net="" id="gge495" locked="0" /><polyline points="4042 3523 4057.5 3523 4057.5 3535 4042 3535 4042 3523" stroke-width="1"  stroke-linecap="round" fill="none" layerid="3" net="" id="gge498" locked="0" /><polyline points="3978.5 3523 3994 3523 3994 3535 3978.5 3535 3978.5 3523" stroke-width="1"  stroke-linecap="round" fill="none" layerid="3" net="" id="gge501" locked="0" /><polyline points="3987 3453.5 3992 3453.5 3992 3463.5 3987 3463.5 3987 3453.5" stroke-width="1"  stroke-linecap="round" fill="none" layerid="3" net="" id="gge504" locked="0" /><polyline points="3987.25 3465.5 3991.75 3465.5 3991.75 3475.5 3987.25 3475.5 3987.25 3465.5" stroke-width="1"  stroke-linecap="round" fill="none" layerid="3" net="" id="gge507" locked="0" /><polyline points="4023.5 3455.5 4034.5 3455.5 4034.5 3460.5 4023.5 3460.5 4023.5 3455.5" stroke-width="1"  stroke-linecap="round" fill="none" layerid="3" net="" id="gge510" locked="0" /><polyline points="4027 3453.5 4031 3453.5 4031 3455.5 4027 3455.5 4027 3453.5" stroke-width="1"  stroke-linecap="round" fill="none" layerid="3" net="" id="gge513" locked="0" /><polyline points="4025 3460.5 4027 3460.5 4027 3463 4025 3463 4025 3460.5" stroke-width="1"  stroke-linecap="round" fill="none" layerid="3" net="" id="gge516" locked="0" /><polyline points="4031 3460.5 4033 3460.5 4033 3463 4031 3463 4031 3460.5" stroke-width="1"  stroke-linecap="round" fill="none" layerid="3" net="" id="gge519" locked="0" /><polyline points="4013.5 3481.5 4034 3481.5 4034 3502 4013.5 3502 4013.5 3481.5" stroke-width="1"  stroke-linecap="round" fill="none" layerid="3" net="" id="gge522" locked="0" /><polyline points="3980.75 3488.75 4000.75 3488.75 4000.75 3503.75 3980.75 3503.75 3980.75 3488.75" stroke-width="1"  stroke-linecap="round" fill="none" layerid="3" net="" id="gge525" locked="0" /><polyline points="3985.75 3483.25 3995.75 3483.25 3995.75 3488.75 3985.75 3488.75 3985.75 3483.25" stroke-width="1"  stroke-linecap="round" fill="none" layerid="3" net="" id="gge528" locked="0" /><polyline points="3995 3504 3997.5 3504 3997.5 3509.5 3995 3509.5 3995 3504" stroke-width="1"  stroke-linecap="round" fill="none" layerid="3" net="" id="gge531" locked="0" /><polyline points="3989.5 3504 3992 3504 3992 3509.5 3989.5 3509.5 3989.5 3504" stroke-width="1"  stroke-linecap="round" fill="none" layerid="3" net="" id="gge534" locked="0" /><polyline points="3984 3504 3986.5 3504 3986.5 3509.5 3984 3509.5 3984 3504" stroke-width="1"  stroke-linecap="round" fill="none" layerid="3" net="" id="gge537" locked="0" /><polyline points="4048.5 3460.5 4050.5 3460.5 4050.5 3463 4048.5 3463 4048.5 3460.5" stroke-width="1"  stroke-linecap="round" fill="none" layerid="3" net="" id="gge540" locked="0" /><polyline points="4042.5 3460.5 4044.5 3460.5 4044.5 3463 4042.5 3463 4042.5 3460.5" stroke-width="1"  stroke-linecap="round" fill="none" layerid="3" net="" id="gge543" locked="0" /><polyline points="4044.5 3453.5 4048.5 3453.5 4048.5 3455.5 4044.5 3455.5 4044.5 3453.5" stroke-width="1"  stroke-linecap="round" fill="none" layerid="3" net="" id="gge546" locked="0" /><polyline points="4041 3455.5 4052 3455.5 4052 3460.5 4041 3460.5 4041 3455.5" stroke-width="1"  stroke-linecap="round" fill="none" layerid="3" net="" id="gge549" locked="0" /><polyline points="3992.25 3437.5 3996.75 3437.5 3996.75 3447.5 3992.25 3447.5 3992.25 3437.5" stroke-width="1"  stroke-linecap="round" fill="none" layerid="3" net="" id="gge552" locked="0" /><polyline points="3999 3437.5 4003.5 3437.5 4003.5 3447.5 3999 3447.5 3999 3437.5" stroke-width="1"  stroke-linecap="round" fill="none" layerid="3" net="" id="gge555" locked="0" /><polyline points="4005.75 3437.5 4010.25 3437.5 4010.25 3447.5 4005.75 3447.5 4005.75 3437.5" stroke-width="1"  stroke-linecap="round" fill="none" layerid="3" net="" id="gge558" locked="0" /><polyline points="4012.5 3437.5 4017 3437.5 4017 3447.5 4012.5 3447.5 4012.5 3437.5" stroke-width="1"  stroke-linecap="round" fill="none" layerid="3" net="" id="gge561" locked="0" /><polyline points="4019.25 3437.5 4023.75 3437.5 4023.75 3447.5 4019.25 3447.5 4019.25 3437.5" stroke-width="1"  stroke-linecap="round" fill="none" layerid="3" net="" id="gge564" locked="0" /><polyline points="4026 3437.5 4030.5 3437.5 4030.5 3447.5 4026 3447.5 4026 3437.5" stroke-width="1"  stroke-linecap="round" fill="none" layerid="3" net="" id="gge567" locked="0" /><polyline points="4032.75 3437.5 4037.25 3437.5 4037.25 3447.5 4032.75 3447.5 4032.75 3437.5" stroke-width="1"  stroke-linecap="round" fill="none" layerid="3" net="" id="gge570" locked="0" /><polyline points="4039.5 3437.5 4044 3437.5 4044 3447.5 4039.5 3447.5 4039.5 3437.5" stroke-width="1"  stroke-linecap="round" fill="none" layerid="3" net="" id="gge573" locked="0" /><polyline points="4024 3468 4034 3468 4034 3472.5 4024 3472.5 4024 3468" stroke-width="1"  stroke-linecap="round" fill="none" layerid="3" net="" id="gge576" locked="0" /><polyline points="4045 3468.25 4055 3468.25 4055 3472.75 4045 3472.75 4045 3468.25" stroke-width="1"  stroke-linecap="round" fill="none" layerid="3" net="" id="gge579" locked="0" /><polyline points="4045 3475.25 4055 3475.25 4055 3479.75 4045 3479.75 4045 3475.25" stroke-width="1"  stroke-linecap="round" fill="none" layerid="3" net="" id="gge582" locked="0" /><polyline points="4045 3482.25 4055 3482.25 4055 3486.75 4045 3486.75 4045 3482.25" stroke-width="1"  stroke-linecap="round" fill="none" layerid="3" net="" id="gge585" locked="0" /><polyline points="4045 3489.25 4055 3489.25 4055 3493.75 4045 3493.75 4045 3489.25" stroke-width="1"  stroke-linecap="round" fill="none" layerid="3" net="" id="gge588" locked="0" /><polyline points="4045 3496.25 4055 3496.25 4055 3500.75 4045 3500.75 4045 3496.25" stroke-width="1"  stroke-linecap="round" fill="none" layerid="3" net="" id="gge591" locked="0" /><polyline points="4045 3503.25 4055 3503.25 4055 3507.75 4045 3507.75 4045 3503.25" stroke-width="1"  stroke-linecap="round" fill="none" layerid="3" net="" id="gge594" locked="0" /><polyline points="3995.5 3465.563 4008.405 3465.563 4008.405 3475 3995.5 3475 3995.5 3465.563" stroke-width="1"  stroke-linecap="round" fill="none" layerid="3" net="" id="gge597" locked="0" /><polyline points="3995 3454 4010 3454 4010 3461 3995 3461 3995 3454" stroke-width="1"  stroke-linecap="round" fill="none" layerid="3" net="" id="gge600" locked="0" /><polyline points="4014 3506.5 4029 3506.5 4029 3513.5 4014 3513.5 4014 3506.5" stroke-width="1"  stroke-linecap="round" fill="none" layerid="3" net="" id="gge603" locked="0" /><polyline points="4155 3489 4145 3489 4145 3479 4155 3479 4155 3486.5" stroke-width="0.8"  stroke-linecap="round" fill="none" layerid="3" net="" id="gge2542" locked="0" /><polyline points="4155 3489 4155 3486.5" stroke-width="0.79921"  stroke-linecap="round" fill="none" layerid="3" net="" id="gge2545" locked="0" /><polyline points="4093.1 3488.7 4093.1 3479.3" stroke-width="1"  stroke-linecap="round" fill="none" layerid="3" net="" id="gge2596" locked="0" /><polyline points="4093.1 3479.3 4117.9 3479.3" stroke-width="1"  stroke-linecap="round" fill="none" layerid="3" net="" id="gge2599" locked="0" /><polyline points="4117.9 3479.3 4117.9 3488.7" stroke-width="1"  stroke-linecap="round" fill="none" layerid="3" net="" id="gge2602" locked="0" /><polyline points="4117.9 3488.7 4093.1 3488.7" stroke-width="1"  stroke-linecap="round" fill="none" layerid="3" net="" id="gge2605" locked="0" /><polyline points="4143 3467 4133 3467 4133 3427 4143 3427 4143 3434.5" stroke-width="0.8"  stroke-linecap="round" fill="none" layerid="3" net="" id="gge3511" locked="0" /><polyline points="4143 3467 4143 3434.5" stroke-width="0.79921"  stroke-linecap="round" fill="none" layerid="3" net="" id="gge3514" locked="0" /><g c_partid="part_pcbtext" c_etype="" c_origin="4017.618,3316" c_rotation="0" c_mirror="0" id="gge333" locked="0" layerid="3" c_shapetype="group" display="none"><path c_fontsize="4.5" c_fontfamily="" c_text="ESP32_DEVKITC_V4 COPY" d="M 4017.618 3311.46 L 4017.618 3315.75 M 4017.618 3311.46 L 4020.278 3311.46 M 4017.618 3313.5 L 4019.258 3313.5 M 4017.618 3315.75 L 4020.278 3315.75 M 4024.488 3312.07 L 4024.078 3311.66 L 4023.468 3311.46 L 4022.648 3311.46 L 4022.038 3311.66 L 4021.628 3312.07 L 4021.628 3312.48 L 4021.828 3312.89 L 4022.038 3313.1 L 4022.448 3313.3 L 4023.668 3313.71 L 4024.078 3313.91 L 4024.288 3314.12 L 4024.488 3314.53 L 4024.488 3315.14 L 4024.078 3315.55 L 4023.468 3315.75 L 4022.648 3315.75 L 4022.038 3315.55 L 4021.628 3315.14 M 4025.838 3311.46 L 4025.838 3315.75 M 4025.838 3311.46 L 4027.678 3311.46 L 4028.298 3311.66 L 4028.498 3311.87 L 4028.708 3312.28 L 4028.708 3312.89 L 4028.498 3313.3 L 4028.298 3313.5 L 4027.678 3313.71 L 4025.838 3313.71 M 4030.468 3311.46 L 4032.718 3311.46 L 4031.488 3313.1 L 4032.098 3313.1 L 4032.508 3313.3 L 4032.718 3313.5 L 4032.918 3314.12 L 4032.918 3314.53 L 4032.718 3315.14 L 4032.308 3315.55 L 4031.688 3315.75 L 4031.078 3315.75 L 4030.468 3315.55 L 4030.258 3315.35 L 4030.058 3314.94 M 4034.468 3312.48 L 4034.468 3312.28 L 4034.678 3311.87 L 4034.878 3311.66 L 4035.288 3311.46 L 4036.108 3311.46 L 4036.518 3311.66 L 4036.718 3311.87 L 4036.928 3312.28 L 4036.928 3312.69 L 4036.718 3313.1 L 4036.318 3313.71 L 4034.268 3315.75 L 4037.128 3315.75 M 4038.478 3317.19 L 4042.168 3317.19 M 4043.518 3311.46 L 4043.518 3315.75 M 4043.518 3311.46 L 4044.948 3311.46 L 4045.558 3311.66 L 4045.968 3312.07 L 4046.168 3312.48 L 4046.378 3313.1 L 4046.378 3314.12 L 4046.168 3314.73 L 4045.968 3315.14 L 4045.558 3315.55 L 4044.948 3315.75 L 4043.518 3315.75 M 4047.728 3311.46 L 4047.728 3315.75 M 4047.728 3311.46 L 4050.388 3311.46 M 4047.728 3313.5 L 4049.368 3313.5 M 4047.728 3315.75 L 4050.388 3315.75 M 4051.738 3311.46 L 4053.368 3315.75 M 4055.008 3311.46 L 4053.368 3315.75 M 4056.358 3311.46 L 4056.358 3315.75 M 4059.218 3311.46 L 4056.358 3314.32 M 4057.378 3313.3 L 4059.218 3315.75 M 4060.568 3311.46 L 4060.568 3315.75 M 4063.358 3311.46 L 4063.358 3315.75 M 4061.918 3311.46 L 4064.788 3311.46 M 4069.208 3312.48 L 4068.998 3312.07 L 4068.588 3311.66 L 4068.178 3311.46 L 4067.368 3311.46 L 4066.958 3311.66 L 4066.548 3312.07 L 4066.338 3312.48 L 4066.138 3313.1 L 4066.138 3314.12 L 4066.338 3314.73 L 4066.548 3315.14 L 4066.958 3315.55 L 4067.368 3315.75 L 4068.178 3315.75 L 4068.588 3315.55 L 4068.998 3315.14 L 4069.208 3314.73 M 4070.558 3317.19 L 4074.238 3317.19 M 4075.588 3311.46 L 4077.218 3315.75 M 4078.858 3311.46 L 4077.218 3315.75 M 4082.258 3311.46 L 4080.208 3314.32 L 4083.278 3314.32 M 4082.258 3311.46 L 4082.258 3315.75 M 4090.848 3312.48 L 4090.638 3312.07 L 4090.228 3311.66 L 4089.818 3311.46 L 4089.008 3311.46 L 4088.598 3311.66 L 4088.188 3312.07 L 4087.978 3312.48 L 4087.778 3313.1 L 4087.778 3314.12 L 4087.978 3314.73 L 4088.188 3315.14 L 4088.598 3315.55 L 4089.008 3315.75 L 4089.818 3315.75 L 4090.228 3315.55 L 4090.638 3315.14 L 4090.848 3314.73 M 4093.418 3311.46 L 4093.018 3311.66 L 4092.608 3312.07 L 4092.398 3312.48 L 4092.198 3313.1 L 4092.198 3314.12 L 4092.398 3314.73 L 4092.608 3315.14 L 4093.018 3315.55 L 4093.418 3315.75 L 4094.238 3315.75 L 4094.648 3315.55 L 4095.058 3315.14 L 4095.268 3314.73 L 4095.468 3314.12 L 4095.468 3313.1 L 4095.268 3312.48 L 4095.058 3312.07 L 4094.648 3311.66 L 4094.238 3311.46 L 4093.418 3311.46 M 4096.818 3311.46 L 4096.818 3315.75 M 4096.818 3311.46 L 4098.658 3311.46 L 4099.268 3311.66 L 4099.478 3311.87 L 4099.678 3312.28 L 4099.678 3312.89 L 4099.478 3313.3 L 4099.268 3313.5 L 4098.658 3313.71 L 4096.818 3313.71 M 4101.028 3311.46 L 4102.668 3313.5 L 4102.668 3315.75 M 4104.308 3311.46 L 4102.668 3313.5" fill="none"  stroke-width="0.6" c_note="note_name" /></g><g c_partid="part_pcbtext" c_etype="" c_origin="4017.618,3323" c_rotation="0" c_mirror="0" id="gge339" locked="0" layerid="3" c_shapetype="group" ><path c_fontsize="4.5" c_fontfamily="" c_text="U1" d="M 4017.618 3318.46 L 4017.618 3321.53 L 4017.818 3322.14 L 4018.228 3322.55 L 4018.848 3322.75 L 4019.258 3322.75 L 4019.868 3322.55 L 4020.278 3322.14 L 4020.478 3321.53 L 4020.478 3318.46 M 4021.828 3319.28 L 4022.238 3319.07 L 4022.858 3318.46 L 4022.858 3322.75" fill="none"  stroke-width="0.6" c_note="note_pre" /></g><g c_partid="part_pcbtext" c_etype="pinpart" c_origin="4039.5,3520" c_rotation="0" c_mirror="0" id="gge624" locked="0" layerid="3" c_shapetype="group" ><path c_fontsize="5.9055" c_fontfamily="" c_text="BOOT" d="M 4039.5 3514.04 L 4039.5 3519.68 M 4039.5 3514.04 L 4041.92 3514.04 L 4042.72 3514.31 L 4042.99 3514.58 L 4043.26 3515.11 L 4043.26 3515.65 L 4042.99 3516.19 L 4042.72 3516.46 L 4041.92 3516.73 M 4039.5 3516.73 L 4041.92 3516.73 L 4042.72 3516.99 L 4042.99 3517.26 L 4043.26 3517.8 L 4043.26 3518.6 L 4042.99 3519.14 L 4042.72 3519.41 L 4041.92 3519.68 L 4039.5 3519.68 M 4046.64 3514.04 L 4046.1 3514.31 L 4045.57 3514.85 L 4045.3 3515.38 L 4045.03 3516.19 L 4045.03 3517.53 L 4045.3 3518.34 L 4045.57 3518.87 L 4046.1 3519.41 L 4046.64 3519.68 L 4047.71 3519.68 L 4048.25 3519.41 L 4048.79 3518.87 L 4049.06 3518.34 L 4049.32 3517.53 L 4049.32 3516.19 L 4049.06 3515.38 L 4048.79 3514.85 L 4048.25 3514.31 L 4047.71 3514.04 L 4046.64 3514.04 M 4052.71 3514.04 L 4052.17 3514.31 L 4051.63 3514.85 L 4051.36 3515.38 L 4051.1 3516.19 L 4051.1 3517.53 L 4051.36 3518.34 L 4051.63 3518.87 L 4052.17 3519.41 L 4052.71 3519.68 L 4053.78 3519.68 L 4054.32 3519.41 L 4054.85 3518.87 L 4055.12 3518.34 L 4055.39 3517.53 L 4055.39 3516.19 L 4055.12 3515.38 L 4054.85 3514.85 L 4054.32 3514.31 L 4053.78 3514.04 L 4052.71 3514.04 M 4059.04 3514.04 L 4059.04 3519.68 M 4057.16 3514.04 L 4060.92 3514.04" fill="none"  stroke-width="0.8"  /></g><g c_partid="part_pcbtext" c_etype="pinpart" c_origin="3979.882,3522" c_rotation="0" c_mirror="0" id="gge630" locked="0" layerid="3" c_shapetype="group" ><path c_fontsize="5.9055" c_fontfamily="" c_text="RST" d="M 3979.878 3516.04 L 3979.878 3521.68 M 3979.878 3516.04 L 3982.298 3516.04 L 3983.108 3516.31 L 3983.368 3516.58 L 3983.638 3517.11 L 3983.638 3517.65 L 3983.368 3518.19 L 3983.108 3518.46 L 3982.298 3518.73 L 3979.878 3518.73 M 3981.758 3518.73 L 3983.638 3521.68 M 3989.168 3516.85 L 3988.628 3516.31 L 3987.828 3516.04 L 3986.758 3516.04 L 3985.948 3516.31 L 3985.408 3516.85 L 3985.408 3517.38 L 3985.678 3517.92 L 3985.948 3518.19 L 3986.488 3518.46 L 3988.098 3518.99 L 3988.628 3519.26 L 3988.898 3519.53 L 3989.168 3520.07 L 3989.168 3520.87 L 3988.628 3521.41 L 3987.828 3521.68 L 3986.758 3521.68 L 3985.948 3521.41 L 3985.408 3520.87 M 3992.818 3516.04 L 3992.818 3521.68 M 3990.938 3516.04 L 3994.698 3516.04" fill="none"  stroke-width="0.8"  /></g><g c_partid="part_pcbtext" c_etype="pinpart" c_origin="4008,3536.5" c_rotation="0" c_mirror="0" id="gge636" locked="0" layerid="3" c_shapetype="group" ><path c_fontsize="8" c_fontfamily="" c_text="USB" d="M 4008 3528.43 L 4008 3533.88 L 4008.36 3534.97 L 4009.09 3535.7 L 4010.18 3536.06 L 4010.91 3536.06 L 4012 3535.7 L 4012.73 3534.97 L 4013.09 3533.88 L 4013.09 3528.43 M 4020.58 3529.52 L 4019.85 3528.79 L 4018.76 3528.43 L 4017.31 3528.43 L 4016.22 3528.79 L 4015.49 3529.52 L 4015.49 3530.25 L 4015.85 3530.97 L 4016.22 3531.34 L 4016.95 3531.7 L 4019.13 3532.43 L 4019.85 3532.79 L 4020.22 3533.15 L 4020.58 3533.88 L 4020.58 3534.97 L 4019.85 3535.7 L 4018.76 3536.06 L 4017.31 3536.06 L 4016.22 3535.7 L 4015.49 3534.97 M 4022.98 3528.43 L 4022.98 3536.06 M 4022.98 3528.43 L 4026.25 3528.43 L 4027.35 3528.79 L 4027.71 3529.15 L 4028.07 3529.88 L 4028.07 3530.61 L 4027.71 3531.34 L 4027.35 3531.7 L 4026.25 3532.06 M 4022.98 3532.06 L 4026.25 3532.06 L 4027.35 3532.43 L 4027.71 3532.79 L 4028.07 3533.52 L 4028.07 3534.61 L 4027.71 3535.34 L 4027.35 3535.7 L 4026.25 3536.06 L 4022.98 3536.06" fill="none"  stroke-width="0.8"  /></g><g c_partid="part_pcbtext" c_etype="pinpart" c_origin="4001,3391.5" c_rotation="0" c_mirror="0" id="gge642" locked="0" layerid="3" c_shapetype="group" ><path c_fontsize="8" c_fontfamily="" c_text="ESP32" d="M 4000.998 3383.43 L 4000.998 3391.06 M 4000.998 3383.43 L 4005.728 3383.43 M 4000.998 3387.06 L 4003.908 3387.06 M 4000.998 3391.06 L 4005.728 3391.06 M 4013.218 3384.52 L 4012.488 3383.79 L 4011.398 3383.43 L 4009.948 3383.43 L 4008.858 3383.79 L 4008.128 3384.52 L 4008.128 3385.25 L 4008.488 3385.97 L 4008.858 3386.34 L 4009.578 3386.7 L 4011.768 3387.43 L 4012.488 3387.79 L 4012.858 3388.15 L 4013.218 3388.88 L 4013.218 3389.97 L 4012.488 3390.7 L 4011.398 3391.06 L 4009.948 3391.06 L 4008.858 3390.7 L 4008.128 3389.97 M 4015.618 3383.43 L 4015.618 3391.06 M 4015.618 3383.43 L 4018.888 3383.43 L 4019.978 3383.79 L 4020.348 3384.15 L 4020.708 3384.88 L 4020.708 3385.97 L 4020.348 3386.7 L 4019.978 3387.06 L 4018.888 3387.43 L 4015.618 3387.43 M 4023.838 3383.43 L 4027.838 3383.43 L 4025.658 3386.34 L 4026.748 3386.34 L 4027.468 3386.7 L 4027.838 3387.06 L 4028.198 3388.15 L 4028.198 3388.88 L 4027.838 3389.97 L 4027.108 3390.7 L 4026.018 3391.06 L 4024.928 3391.06 L 4023.838 3390.7 L 4023.468 3390.34 L 4023.108 3389.61 M 4030.968 3385.25 L 4030.968 3384.88 L 4031.328 3384.15 L 4031.688 3383.79 L 4032.418 3383.43 L 4033.868 3383.43 L 4034.598 3383.79 L 4034.968 3384.15 L 4035.328 3384.88 L 4035.328 3385.61 L 4034.968 3386.34 L 4034.238 3387.43 L 4030.598 3391.06 L 4035.688 3391.06" fill="none"  stroke-width="0.8"  /></g><g c_partid="part_pcbtext" c_etype="" c_origin="4150,3471.4" c_rotation="0" c_mirror="" id="gge2530" locked="0" layerid="3" c_shapetype="group" display="none"><path c_fontsize="4.5" c_fontfamily="" c_text="HDR-M-2.54_1x1" d="M 4150 3466.86 L 4150 3471.15 M 4152.86 3466.86 L 4152.86 3471.15 M 4150 3468.9 L 4152.86 3468.9 M 4154.21 3466.86 L 4154.21 3471.15 M 4154.21 3466.86 L 4155.65 3466.86 L 4156.26 3467.06 L 4156.67 3467.47 L 4156.87 3467.88 L 4157.08 3468.5 L 4157.08 3469.52 L 4156.87 3470.13 L 4156.67 3470.54 L 4156.26 3470.95 L 4155.65 3471.15 L 4154.21 3471.15 M 4158.43 3466.86 L 4158.43 3471.15 M 4158.43 3466.86 L 4160.27 3466.86 L 4160.88 3467.06 L 4161.09 3467.27 L 4161.29 3467.68 L 4161.29 3468.09 L 4161.09 3468.5 L 4160.88 3468.7 L 4160.27 3468.9 L 4158.43 3468.9 M 4159.86 3468.9 L 4161.29 3471.15 M 4162.64 3469.31 L 4166.32 3469.31 M 4167.67 3466.86 L 4167.67 3471.15 M 4167.67 3466.86 L 4169.31 3471.15 M 4170.95 3466.86 L 4169.31 3471.15 M 4170.95 3466.86 L 4170.95 3471.15 M 4172.3 3469.31 L 4175.98 3469.31 M 4177.53 3467.88 L 4177.53 3467.68 L 4177.74 3467.27 L 4177.94 3467.06 L 4178.35 3466.86 L 4179.17 3466.86 L 4179.58 3467.06 L 4179.78 3467.27 L 4179.99 3467.68 L 4179.99 3468.09 L 4179.78 3468.5 L 4179.37 3469.11 L 4177.33 3471.15 L 4180.19 3471.15 M 4181.75 3470.13 L 4181.54 3470.34 L 4181.75 3470.54 L 4181.95 3470.34 L 4181.75 3470.13 M 4185.75 3466.86 L 4183.71 3466.86 L 4183.5 3468.7 L 4183.71 3468.5 L 4184.32 3468.29 L 4184.94 3468.29 L 4185.55 3468.5 L 4185.96 3468.9 L 4186.16 3469.52 L 4186.16 3469.93 L 4185.96 3470.54 L 4185.55 3470.95 L 4184.94 3471.15 L 4184.32 3471.15 L 4183.71 3470.95 L 4183.5 3470.75 L 4183.3 3470.34 M 4189.56 3466.86 L 4187.51 3469.72 L 4190.58 3469.72 M 4189.56 3466.86 L 4189.56 3471.15 M 4191.93 3472.59 L 4195.61 3472.59 M 4196.96 3467.68 L 4197.37 3467.47 L 4197.99 3466.86 L 4197.99 3471.15 M 4199.34 3468.29 L 4201.59 3471.15 M 4201.59 3468.29 L 4199.34 3471.15 M 4202.94 3467.68 L 4203.35 3467.47 L 4203.96 3466.86 L 4203.96 3471.15" fill="none"  stroke-width="0.6" c_note="note_name" /></g><g c_partid="part_pcbtext" c_etype="" c_origin="4134.5,3496.5" c_rotation="0" c_mirror="0" id="gge2536" locked="0" layerid="3" c_shapetype="group" ><path c_fontsize="4.5" c_fontfamily="" c_text="TO_IR_LINE" d="M 4135.93 3491.96L4135.93 3496.25 M 4134.5 3491.96L4137.36 3491.96 M 4139.94 3491.96L4139.53 3492.16 L4139.12 3492.57 L4138.92 3492.98 L4138.71 3493.6 L4138.71 3494.62 L4138.92 3495.23 L4139.12 3495.64 L4139.53 3496.05 L4139.94 3496.25 L4140.76 3496.25 L4141.17 3496.05 L4141.58 3495.64 L4141.78 3495.23 L4141.99 3494.62 L4141.99 3493.6 L4141.78 3492.98 L4141.58 3492.57 L4141.17 3492.16 L4140.76 3491.96 L4139.94 3491.96 M 4143.34 3497.69L4147.02 3497.69 M 4148.37 3491.96L4148.37 3496.25 M 4149.72 3491.96L4149.72 3496.25 M 4149.72 3491.96L4151.56 3491.96 L4152.17 3492.16 L4152.38 3492.37 L4152.58 3492.78 L4152.58 3493.19 L4152.38 3493.6 L4152.17 3493.8 L4151.56 3494 L4149.72 3494 M 4151.15 3494L4152.58 3496.25 M 4153.93 3497.69L4157.61 3497.69 M 4158.96 3491.96L4158.96 3496.25 M 4158.96 3496.25L4161.42 3496.25 M 4162.77 3491.96L4162.77 3496.25 M 4164.12 3491.96L4164.12 3496.25 M 4164.12 3491.96L4166.98 3496.25 M 4166.98 3491.96L4166.98 3496.25 M 4168.33 3491.96L4168.33 3496.25 M 4168.33 3491.96L4170.99 3491.96 M 4168.33 3494L4169.97 3494 M 4168.33 3496.25L4170.99 3496.25 " fill="none"  stroke-width="0.6" c_note="note_pre" /></g><g c_partid="part_pcbtext" c_etype="" c_origin="4099,3486.5" c_rotation="0" c_mirror="" id="gge2584" locked="0" layerid="3" c_shapetype="group" ><path c_fontsize="4.5" c_fontfamily="" c_text="100R" d="M 4099 3482.78 L 4099.41 3482.57 L 4100.02 3481.96 L 4100.02 3486.25 M 4102.6 3481.96 L 4101.99 3482.16 L 4101.58 3482.78 L 4101.37 3483.8 L 4101.37 3484.41 L 4101.58 3485.44 L 4101.99 3486.05 L 4102.6 3486.25 L 4103.01 3486.25 L 4103.62 3486.05 L 4104.03 3485.44 L 4104.24 3484.41 L 4104.24 3483.8 L 4104.03 3482.78 L 4103.62 3482.16 L 4103.01 3481.96 L 4102.6 3481.96 M 4106.81 3481.96 L 4106.2 3482.16 L 4105.79 3482.78 L 4105.59 3483.8 L 4105.59 3484.41 L 4105.79 3485.44 L 4106.2 3486.05 L 4106.81 3486.25 L 4107.22 3486.25 L 4107.84 3486.05 L 4108.25 3485.44 L 4108.45 3484.41 L 4108.45 3483.8 L 4108.25 3482.78 L 4107.84 3482.16 L 4107.22 3481.96 L 4106.81 3481.96 M 4109.8 3481.96 L 4109.8 3486.25 M 4109.8 3481.96 L 4111.64 3481.96 L 4112.25 3482.16 L 4112.46 3482.37 L 4112.66 3482.78 L 4112.66 3483.19 L 4112.46 3483.6 L 4112.25 3483.8 L 4111.64 3484 L 4109.8 3484 M 4111.23 3484 L 4112.66 3486.25" fill="none"  stroke-width="0.6" c_note="note_name" /></g><g c_partid="part_pcbtext" c_etype="" c_origin="4105.5,3478" c_rotation="0" c_mirror="" id="gge2590" locked="0" layerid="3" c_shapetype="group" ><path c_fontsize="4.5" c_fontfamily="" c_text="R1" d="M 4105.5 3473.46 L 4105.5 3477.75 M 4105.5 3473.46 L 4107.34 3473.46 L 4107.95 3473.66 L 4108.16 3473.87 L 4108.36 3474.28 L 4108.36 3474.69 L 4108.16 3475.1 L 4107.95 3475.3 L 4107.34 3475.5 L 4105.5 3475.5 M 4106.93 3475.5 L 4108.36 3477.75 M 4109.71 3474.28 L 4110.12 3474.07 L 4110.74 3473.46 L 4110.74 3477.75" fill="none"  stroke-width="0.6" c_note="note_pre" /></g><g c_partid="part_pcbtext" c_etype="" c_origin="4154.35,3501.39" c_rotation="90" c_mirror="0" id="gge225" locked="0" layerid="3" c_shapetype="group" display="none"><path c_fontsize="4.5" c_fontfamily="" c_text="HDR-F-2.54_1x4" d="M 4149.81 3501.39L4154.1 3501.39 M 4149.81 3498.53L4154.1 3498.53 M 4151.85 3501.39L4151.85 3498.53 M 4149.81 3497.18L4154.1 3497.18 M 4149.81 3497.18L4149.81 3495.74 L4150.01 3495.13 L4150.42 3494.72 L4150.83 3494.52 L4151.45 3494.31 L4152.47 3494.31 L4153.08 3494.52 L4153.49 3494.72 L4153.9 3495.13 L4154.1 3495.74 L4154.1 3497.18 M 4149.81 3492.96L4154.1 3492.96 M 4149.81 3492.96L4149.81 3491.12 L4150.01 3490.51 L4150.22 3490.3 L4150.63 3490.1 L4151.04 3490.1 L4151.45 3490.3 L4151.65 3490.51 L4151.85 3491.12 L4151.85 3492.96 M 4151.85 3491.53L4154.1 3490.1 M 4152.26 3488.75L4152.26 3485.07 M 4149.81 3483.72L4154.1 3483.72 M 4149.81 3483.72L4149.81 3481.06 M 4151.85 3483.72L4151.85 3482.08 M 4152.26 3479.71L4152.26 3476.03 M 4150.83 3474.47L4150.63 3474.47 L4150.22 3474.27 L4150.01 3474.06 L4149.81 3473.65 L4149.81 3472.84 L4150.01 3472.43 L4150.22 3472.22 L4150.63 3472.02 L4151.04 3472.02 L4151.45 3472.22 L4152.06 3472.63 L4154.1 3474.68 L4154.1 3471.81 M 4153.08 3470.26L4153.29 3470.46 L4153.49 3470.26 L4153.29 3470.05 L4153.08 3470.26 M 4149.81 3466.25L4149.81 3468.29 L4151.65 3468.5 L4151.45 3468.29 L4151.24 3467.68 L4151.24 3467.07 L4151.45 3466.45 L4151.85 3466.04 L4152.47 3465.84 L4152.88 3465.84 L4153.49 3466.04 L4153.9 3466.45 L4154.1 3467.07 L4154.1 3467.68 L4153.9 3468.29 L4153.7 3468.5 L4153.29 3468.7 M 4149.81 3462.44L4152.67 3464.49 L4152.67 3461.42 M 4149.81 3462.44L4154.1 3462.44 M 4155.54 3460.07L4155.54 3456.39 M 4150.63 3455.04L4150.42 3454.63 L4149.81 3454.02 L4154.1 3454.02 M 4151.24 3452.67L4154.1 3450.42 M 4151.24 3450.42L4154.1 3452.67 M 4149.81 3447.02L4152.67 3449.07 L4152.67 3446 M 4149.81 3447.02L4154.1 3447.02 " fill="none"  stroke-width="0.6" c_note="note_name" /></g><g c_partid="part_pcbtext" c_etype="" c_origin="4120.5,3477" c_rotation="0" c_mirror="0" id="gge231" locked="0" layerid="3" c_shapetype="group" display="none"><path c_fontsize="4.5" c_fontfamily="" c_text="H3" d="M 4120.5 3472.46 L 4120.5 3476.75 M 4123.36 3472.46 L 4123.36 3476.75 M 4120.5 3474.5 L 4123.36 3474.5 M 4125.12 3472.46 L 4127.37 3472.46 L 4126.15 3474.1 L 4126.76 3474.1 L 4127.17 3474.3 L 4127.37 3474.5 L 4127.58 3475.12 L 4127.58 3475.53 L 4127.37 3476.14 L 4126.96 3476.55 L 4126.35 3476.75 L 4125.74 3476.75 L 4125.12 3476.55 L 4124.92 3476.35 L 4124.71 3475.94" fill="none"  stroke-width="0.6" c_note="note_pre" /></g><circle cx="4050" cy="3529" r="3.543" stroke-width="1" fill="none" layerid="3" id="gge378" locked="0"  /><circle cx="3986" cy="3529" r="3.543" stroke-width="1" fill="none" layerid="3" id="gge381" locked="0"  /><circle cx="3969" cy="3331" r="5" stroke-width="1" fill="none" layerid="3" id="gge606" locked="0"  /><circle cx="3969" cy="3533" r="5" stroke-width="1" fill="none" layerid="3" id="gge609" locked="0"  /><circle cx="4067" cy="3533" r="5" stroke-width="1" fill="none" layerid="3" id="gge612" locked="0"  /><circle cx="4067" cy="3331" r="5" stroke-width="1" fill="none" layerid="3" id="gge615" locked="0"  /></svg>